<!--?xml version="1.0" standalone="no"?-->
              <svg id="sw-js-blob-svg" viewBox="0 0 100 100" xmlns="http://www.w3.org/2000/svg" version="1.1">
                    <defs> 
                        <linearGradient id="sw-gradient" x1="0" x2="1" y1="1" y2="0">
                            <stop id="stop1" stop-color="rgba(40.67, 0, 114.533, 1)" offset="0%"></stop>
                            <stop id="stop2" stop-color="rgba(3, 4, 94, 1)" offset="100%"></stop>
                        </linearGradient>
                    </defs>
                <path fill="url(#sw-gradient)" d="M19,-32.5C25.9,-29,33.6,-26.4,38.1,-21.1C42.5,-15.9,43.9,-7.9,41.9,-1.1C39.9,5.7,34.7,11.3,30.4,16.9C26,22.4,22.6,27.9,17.7,31.3C12.8,34.7,6.4,36.2,-0.6,37.2C-7.6,38.2,-15.2,38.8,-21.6,36.3C-28.1,33.8,-33.5,28.1,-35.8,21.5C-38.1,15,-37.4,7.5,-36.9,0.3C-36.4,-6.9,-36.1,-13.8,-33.4,-19.6C-30.6,-25.4,-25.4,-30.1,-19.4,-34.1C-13.4,-38.1,-6.7,-41.3,-0.3,-40.8C6.1,-40.3,12.2,-35.9,19,-32.5Z" width="100%" height="100%" transform="translate(50 50)" stroke-width="0" style="transition: all 0.3s ease 0s;"></path>
              </svg>